<?xml version="1.0" encoding="UTF-8" standalone="no"?>
<!DOCTYPE svg PUBLIC "-//W3C//DTD SVG 1.0//EN" "http://www.w3.org/TR/2001/PR-SVG-20010719/DTD/svg10.dtd">
<svg width="30cm" height="14cm" viewBox="19 10 586 272" xmlns="http://www.w3.org/2000/svg" xmlns:xlink="http://www.w3.org/1999/xlink">
  <text font-size="12.8" style="fill: #000000;text-anchor:start;font-family:sans-serif;font-style:normal;font-weight:normal" x="253" y="237">
    <tspan x="253" y="237"></tspan>
  </text>
  <g>
    <rect style="fill: #4fc3f7" x="30.2112" y="74" width="130.789" height="42"/>
    <rect style="fill: none; fill-opacity:0; stroke-width: 2; stroke: #000000" x="30.2112" y="74" width="130.789" height="42"/>
  </g>
  <text font-size="12.8" style="fill: #000000;text-anchor:start;font-family:sans-serif;font-style:normal;font-weight:normal" x="95.6056" y="95">
    <tspan x="95.6056" y="95"></tspan>
  </text>
  <text font-size="20.32" style="fill: #000000;text-anchor:middle;font-family:sans-serif;font-style:normal;font-weight:normal" x="95.6056" y="102.05">
    <tspan x="95.6056" y="102.05">vkube start</tspan>
  </text>
  <g>
    <rect style="fill: #4fc3f7" x="335.626" y="12" width="154" height="166.247"/>
    <rect style="fill: none; fill-opacity:0; stroke-width: 2; stroke: #000000" x="335.626" y="12" width="154" height="166.247"/>
  </g>
  <text font-size="20.32" style="fill: #000000;text-anchor:middle;font-family:sans-serif;font-style:normal;font-weight:normal" x="413" y="54.7108">
    <tspan x="413" y="54.7108">Cluster agent</tspan>
  </text>
  <g>
    <line style="fill: none; fill-opacity:0; stroke-width: 2; stroke: #000000" x1="172" y1="95.0078" x2="324.626" y2="95.1156"/>
    <polygon style="fill: #000000" points="172.004,90.0078 162,95.0007 171.996,100.008 "/>
    <polygon style="fill: none; fill-opacity:0; stroke-width: 2; stroke: #000000" points="172.004,90.0078 162,95.0007 171.996,100.008 "/>
    <polygon style="fill: #000000" points="324.622,100.116 334.626,95.1227 324.63,90.1156 "/>
    <polygon style="fill: none; fill-opacity:0; stroke-width: 2; stroke: #000000" points="324.622,100.116 334.626,95.1227 324.63,90.1156 "/>
  </g>
  <text font-size="13.5467" style="fill: #000000;text-anchor:start;font-family:sans-serif;font-style:normal;font-weight:normal" x="212" y="68.6216">
    <tspan x="212" y="68.6216">Blessings →</tspan>
    <tspan x="212" y="85.5549">foo:bar</tspan>
  </text>
  <text font-size="13.5467" style="fill: #000000;text-anchor:start;font-family:sans-serif;font-style:normal;font-weight:normal" x="193" y="119.622">
    <tspan x="193" y="119.622">← Secret Key</tspan>
  </text>
  <g>
    <rect style="fill: #0f9d58" x="44" y="188.622" width="104" height="45"/>
    <rect style="fill: none; fill-opacity:0; stroke-width: 2; stroke: #000000" x="44" y="188.622" width="104" height="45"/>
  </g>
  <text font-size="13.5467" style="fill: #000000;text-anchor:middle;font-family:sans-serif;font-style:normal;font-weight:normal" x="96" y="207.355">
    <tspan x="96" y="207.355">Kubernetes</tspan>
    <tspan x="96" y="224.288">Secret</tspan>
  </text>
  <g>
    <line style="fill: none; fill-opacity:0; stroke-width: 2; stroke: #000000" x1="95.6056" y1="116" x2="95.9403" y2="177.622"/>
    <polygon style="fill: #000000" points="90.9403,177.649 95.9946,187.622 100.94,177.595 "/>
    <polygon style="fill: none; fill-opacity:0; stroke-width: 2; stroke: #000000" points="90.9403,177.649 95.9946,187.622 100.94,177.595 "/>
  </g>
  <text font-size="12.8" style="fill: #000000;text-anchor:start;font-family:sans-serif;font-style:normal;font-weight:normal" x="426" y="97.6216">
    <tspan x="426" y="97.6216"></tspan>
  </text>
  <g>
    <rect style="fill: #f4b400" x="369" y="75.6216" width="87" height="22"/>
    <rect style="fill: none; fill-opacity:0; stroke-width: 2; stroke: #000000" x="369" y="75.6216" width="87" height="22"/>
  </g>
  <text font-size="13.5467" style="fill: #000000;text-anchor:middle;font-family:sans-serif;font-style:normal;font-weight:normal" x="412.5" y="91.3216">
    <tspan x="412.5" y="91.3216">Secret</tspan>
  </text>
  <text font-size="13.5467" style="fill: #000000;text-anchor:middle;font-family:sans-serif;font-style:normal;font-weight:normal" x="55.1112" y="154.072">
    <tspan x="55.1112" y="154.072">Secret Key</tspan>
  </text>
  <g>
    <rect style="fill: #f4b400" x="369.112" y="105.947" width="87" height="22"/>
    <rect style="fill: none; fill-opacity:0; stroke-width: 2; stroke: #000000" x="369.112" y="105.947" width="87" height="22"/>
  </g>
  <g>
    <rect style="fill: #f4b400" x="368.012" y="137.647" width="87" height="22"/>
    <rect style="fill: none; fill-opacity:0; stroke-width: 2; stroke: #000000" x="368.012" y="137.647" width="87" height="22"/>
  </g>
  <text font-size="13.5467" style="fill: #000000;text-anchor:middle;font-family:sans-serif;font-style:normal;font-weight:normal" x="412.612" y="121.647">
    <tspan x="412.612" y="121.647">Secret</tspan>
  </text>
  <text font-size="13.5467" style="fill: #000000;text-anchor:middle;font-family:sans-serif;font-style:normal;font-weight:normal" x="411.512" y="153.347">
    <tspan x="411.512" y="153.347">Secret</tspan>
  </text>
  <text font-size="12.8" style="fill: #ffff00;text-anchor:start;font-family:sans-serif;font-style:normal;font-weight:normal" x="248.362" y="50.6216">
    <tspan x="248.362" y="50.6216"></tspan>
  </text>
  <g>
    <rect style="fill: #ffffff" x="175" y="193" width="429" height="88"/>
    <rect style="fill: none; fill-opacity:0; stroke-width: 2; stroke-dasharray: 4; stroke: #0f9d58" x="175" y="193" width="429" height="88"/>
  </g>
  <text font-size="12.7998" style="fill: #0f9d58;text-anchor:start;font-family:sans-serif;font-style:normal;font-weight:normal" x="183.5" y="215">
    <tspan x="183.5" y="215">// Creates a new "secret" that can be used to retrieve extensions</tspan>
    <tspan x="183.5" y="231">// of the blessings granted on this RPC, e.g. with the rpc.Granter</tspan>
    <tspan x="183.5" y="247">// ClientCallOpt in Go.</tspan>
    <tspan x="183.5" y="263">NewSecret() (secret string | error) </tspan>
  </text>
</svg>
